<svg width="64" height="64" viewBox="0 0 64 64" fill="none" xmlns="http://www.w3.org/2000/svg">
<rect width="64" height="64" rx="16" fill="#3D413F"/>
<g clip-path="url(#clip0_4_561)">
<path d="M45.3334 28.0001H44.6667" stroke="#FFF629" stroke-width="1.5" stroke-linecap="round" stroke-linejoin="round"/>
<path d="M45.3334 32.0001H44.6667" stroke="#FFF629" stroke-width="1.5" stroke-linecap="round" stroke-linejoin="round"/>
<path d="M45.3334 36.0001H44.6667" stroke="#FFF629" stroke-width="1.5" stroke-linecap="round" stroke-linejoin="round"/>
<path d="M36.1481 22.6667H27.8518C24.9881 22.6667 22.6667 24.9882 22.6667 27.8519V36.1481C22.6667 39.0118 24.9881 41.3333 27.8518 41.3333H36.1481C39.0118 41.3333 41.3333 39.0118 41.3333 36.1481V27.8519C41.3333 24.9882 39.0118 22.6667 36.1481 22.6667Z" stroke="#FFF629" stroke-width="1.5" stroke-linecap="round" stroke-linejoin="round"/>
<path d="M19.3334 28L18.6667 28" stroke="#FFF629" stroke-width="1.5" stroke-linecap="round" stroke-linejoin="round"/>
<path d="M19.3334 32L18.6667 32" stroke="#FFF629" stroke-width="1.5" stroke-linecap="round" stroke-linejoin="round"/>
<path d="M19.3334 36L18.6667 36" stroke="#FFF629" stroke-width="1.5" stroke-linecap="round" stroke-linejoin="round"/>
<path d="M28.0001 18.6667V19.3334" stroke="#FFF629" stroke-width="1.5" stroke-linecap="round" stroke-linejoin="round"/>
<path d="M32.0001 18.6667V19.3334" stroke="#FFF629" stroke-width="1.5" stroke-linecap="round" stroke-linejoin="round"/>
<path d="M36.0001 18.6667V19.3334" stroke="#FFF629" stroke-width="1.5" stroke-linecap="round" stroke-linejoin="round"/>
<path d="M28.0001 44.6667V45.3334" stroke="#FFF629" stroke-width="1.5" stroke-linecap="round" stroke-linejoin="round"/>
<path d="M32.0001 44.6667V45.3334" stroke="#FFF629" stroke-width="1.5" stroke-linecap="round" stroke-linejoin="round"/>
<path d="M36.0001 44.6667V45.3334" stroke="#FFF629" stroke-width="1.5" stroke-linecap="round" stroke-linejoin="round"/>
<path d="M27.731 33.8H32.354" stroke="#FFF629" stroke-width="1.5" stroke-linecap="round" stroke-linejoin="round"/>
<path d="M32.7507 35L30.8067 29H29.2947L27.3507 35" stroke="#FFF629" stroke-width="1.5" stroke-linecap="round" stroke-linejoin="round"/>
<path d="M36.05 35V29" stroke="#FFF629" stroke-width="1.5" stroke-linecap="round" stroke-linejoin="round"/>
</g>
<defs>
<clipPath id="clip0_4_561">
<rect width="32" height="32" fill="white" transform="translate(16 16)"/>
</clipPath>
</defs>
</svg>
